<?xml version="1.0" standalone="no"?>
<!DOCTYPE svg PUBLIC "-//W3C//DTD SVG 20010904//EN"
 "http://www.w3.org/TR/2001/REC-SVG-20010904/DTD/svg10.dtd">
<svg version="1.0" xmlns="http://www.w3.org/2000/svg"
 width="880.000000pt" height="880.000000pt" viewBox="0 0 880.000000 880.000000"
 preserveAspectRatio="xMidYMid meet">
<metadata>
Created by potrace 1.14, written by Peter Selinger 2001-2017
</metadata>
<g transform="translate(0.000000,880.000000) scale(0.100000,-0.100000)"
fill="#000000" stroke="none">
<path d="M4928 7935 c-2 -1 -34 -5 -73 -8 -38 -4 -88 -9 -110 -12 -22 -4 -51
-8 -65 -10 -14 -2 -25 -4 -25 -5 0 -1 -14 -4 -32 -6 -17 -3 -76 -16 -130 -29
-54 -13 -101 -21 -105 -19 -5 3 -8 1 -8 -4 0 -5 -6 -9 -12 -9 -11 0 -168 -43
-218 -59 -8 -3 -15 -4 -15 -3 0 1 -10 -3 -23 -10 -13 -7 -31 -14 -40 -16 -30
-6 -276 -106 -289 -117 -7 -6 -13 -8 -13 -5 0 7 -291 -142 -311 -159 -8 -8
-19 -14 -23 -14 -4 0 -27 -13 -51 -30 -24 -16 -48 -30 -54 -30 -6 0 -11 -4
-11 -10 0 -5 -5 -10 -11 -10 -5 0 -38 -19 -72 -42 -62 -42 -298 -217 -307
-229 -3 -3 -39 -34 -80 -69 -41 -35 -91 -80 -111 -99 -20 -20 -51 -50 -70 -67
-46 -41 -191 -195 -259 -274 -30 -35 -63 -72 -72 -82 -10 -10 -18 -20 -18 -23
0 -3 -9 -16 -21 -28 -11 -12 -39 -47 -62 -77 -23 -30 -45 -56 -49 -58 -5 -2
-8 -8 -8 -14 0 -5 -7 -16 -15 -24 -22 -22 -235 -343 -235 -353 0 -5 -6 -16
-12 -23 -7 -7 -24 -33 -37 -58 -14 -25 -29 -48 -35 -52 -6 -4 -7 -8 -2 -8 5 0
4 -6 -1 -12 -17 -22 -91 -163 -90 -170 1 -4 -5 -15 -13 -25 -9 -10 -16 -22
-17 -28 -1 -5 -5 -19 -9 -30 -11 -34 -13 -47 -18 -120 -3 -38 -8 -86 -12 -105
-3 -19 -8 -57 -10 -85 -2 -27 -6 -75 -8 -105 -3 -30 -8 -80 -11 -110 -5 -57
-12 -123 -19 -200 -3 -25 -7 -74 -10 -110 -4 -36 -9 -89 -12 -118 -5 -45 -10
-98 -16 -162 0 -8 -5 -17 -9 -20 -4 -3 -47 -41 -95 -85 -261 -240 -440 -419
-739 -741 -56 -60 -90 -99 -130 -149 -22 -27 -42 -52 -45 -55 -16 -16 -70
-100 -70 -109 0 -6 -4 -11 -8 -11 -5 0 -15 -12 -23 -27 -8 -16 -20 -34 -27
-41 -7 -8 -10 -18 -7 -23 4 -5 2 -9 -3 -9 -23 0 -104 -221 -130 -355 -7 -40
-7 -242 0 -280 24 -124 53 -206 110 -313 47 -90 128 -212 139 -212 5 0 9 -4 9
-10 0 -34 295 -322 465 -454 81 -63 314 -220 353 -237 18 -8 32 -17 32 -21 0
-5 6 -8 13 -8 7 0 19 -6 26 -12 6 -7 15 -13 19 -14 4 0 63 -28 132 -61 189
-91 308 -137 525 -203 45 -13 215 -52 240 -55 6 0 28 -4 50 -8 151 -29 463
-42 570 -24 106 17 154 30 330 89 66 22 125 41 130 42 6 1 16 5 22 9 7 5 21
10 30 12 10 2 61 20 113 40 52 20 102 38 110 40 8 2 16 4 18 5 1 2 5 3 10 4 4
2 18 7 32 13 14 6 45 19 70 28 25 10 54 21 65 26 11 4 101 40 200 79 99 39
191 75 205 82 14 6 39 17 55 24 17 8 69 29 118 49 48 19 106 44 130 55 23 10
66 29 96 40 30 12 73 29 95 39 23 10 64 28 91 40 28 12 58 26 67 31 10 6 22
10 27 10 5 0 43 16 84 35 41 19 81 35 89 35 8 0 19 5 26 12 6 6 18 13 26 14 7
1 30 9 50 18 95 42 245 105 411 173 61 25 124 51 140 58 17 7 93 39 170 70 77
32 172 71 210 87 39 17 75 31 80 32 6 2 22 8 37 14 15 6 67 27 115 47 48 20
98 40 111 45 31 14 54 23 167 71 55 23 116 49 135 57 19 9 37 16 40 17 3 0 49
22 103 48 54 26 105 47 112 47 7 0 15 4 17 9 2 4 59 36 128 71 69 34 130 66
135 70 6 4 33 20 60 35 28 15 80 47 117 71 37 24 72 44 78 44 5 0 10 3 10 8 1
4 25 23 55 42 30 19 55 38 55 43 0 4 6 7 14 7 7 0 25 11 39 24 15 14 33 29 41
33 72 41 296 266 381 382 193 263 274 517 242 757 -6 49 -10 65 -24 102 -3 9
-7 23 -9 30 -3 14 -37 83 -64 129 -40 68 -179 209 -222 226 -9 3 -22 25 -29
49 -6 24 -14 50 -17 58 -3 8 -7 24 -9 35 -9 40 -12 50 -14 50 -1 0 -3 9 -5 20
-2 11 -10 45 -19 75 -9 30 -20 73 -25 95 -8 36 -35 155 -45 195 -2 8 -22 89
-44 180 -23 91 -44 176 -47 189 -3 13 -9 32 -15 43 -5 10 -8 18 -6 18 3 0 -11
44 -30 98 -18 53 -35 102 -37 107 -17 54 -82 188 -121 250 -17 28 -37 66 -45
85 -8 19 -31 65 -52 101 -21 36 -38 71 -38 76 0 6 -7 16 -15 23 -8 7 -13 16
-10 20 3 5 1 11 -3 14 -5 3 -28 45 -52 93 -24 48 -46 90 -49 93 -3 3 -17 25
-30 50 -25 48 -102 172 -112 180 -3 3 -25 34 -49 70 -24 36 -69 90 -100 120
-53 53 -170 158 -170 153 0 -1 -10 8 -23 20 -47 45 -263 246 -287 267 -24 21
-94 59 -293 158 -78 38 -309 122 -378 136 -13 3 -51 12 -85 20 -77 19 -103 25
-189 41 -38 7 -83 16 -100 19 -16 3 -49 8 -72 12 -68 9 -143 30 -233 64 -81
30 -124 44 -180 56 -25 6 -207 13 -212 9z"/>
</g>
</svg>
